#tb 0: 1/25
#media_type 0: video
#codec_id 0: rawvideo
#dimensions 0: 256x636
#sar 0: 1/1
0,          0,          0,        1,   488448, 0xc27a6cac
0,          1,          1,        1,   488448, 0xf00a152e
0,          2,          2,        1,   488448, 0x060b8c70
0,          3,          3,        1,   488448, 0xf75d6ee2
0,          4,          4,        1,   488448, 0xd7a7f06e
0,          5,          5,        1,   488448, 0x585281a5
0,          6,          6,        1,   488448, 0xb06e3ee8
0,          7,          7,        1,   488448, 0x201d0b8c
0,          8,          8,        1,   488448, 0x4e14e319
0,          9,          9,        1,   488448, 0x5aef5cca
0,         10,         10,        1,   488448, 0x57018668
0,         11,         11,        1,   488448, 0x2ad45b3f
0,         12,         12,        1,   488448, 0x62cc36b8
0,         13,         13,        1,   488448, 0x9e84585e
0,         14,         14,        1,   488448, 0xe6552e42
0,         15,         15,        1,   488448, 0x13b90c2c
0,         16,         16,        1,   488448, 0xf9557145
0,         17,         17,        1,   488448, 0x818340bc
0,         18,         18,        1,   488448, 0x5112c6e1
0,         19,         19,        1,   488448, 0x5d5b8f43
0,         20,         20,        1,   488448, 0xf2101ea6
0,         21,         21,        1,   488448, 0x4266af4d
0,         22,         22,        1,   488448, 0xb358806e
0,         23,         23,        1,   488448, 0xe336aa60
0,         24,         24,        1,   488448, 0x64fcc339
0,         25,         25,        1,   488448, 0x86e4b729
0,         26,         26,        1,   488448, 0x48c380d0
0,         27,         27,        1,   488448, 0xaee36fd3
0,         28,         28,        1,   488448, 0x20b84429
0,         29,         29,        1,   488448, 0x84d85542
0,         30,         30,        1,   488448, 0x94aea169
0,         31,         31,        1,   488448, 0x6278fa2c
0,         32,         32,        1,   488448, 0xaadf998d
0,         33,         33,        1,   488448, 0x29bba90d
0,         34,         34,        1,   488448, 0xef1117ad
0,         35,         35,        1,   488448, 0xd961e36d
0,         36,         36,        1,   488448, 0xff53296e
0,         37,         37,        1,   488448, 0x41f381f9
0,         38,         38,        1,   488448, 0x66fcfc2a
0,         39,         39,        1,   488448, 0x758bb472
0,         40,         40,        1,   488448, 0xefc6dc9e
0,         41,         41,        1,   488448, 0x77fccb69
0,         42,         42,        1,   488448, 0x7a1d82a4
0,         43,         43,        1,   488448, 0xc9d61a1b
0,         44,         44,        1,   488448, 0x8e689deb
0,         45,         45,        1,   488448, 0x52133e75
0,         46,         46,        1,   488448, 0xcc0a098e
0,         47,         47,        1,   488448, 0x045cd17f
0,         48,         48,        1,   488448, 0x97f89963
0,         49,         49,        1,   488448, 0xa1f835ff
